<?xml version="1.0" encoding="UTF-8" standalone="no"?><!DOCTYPE svg PUBLIC "-//W3C//DTD SVG 1.1//EN" "http://www.w3.org/Graphics/SVG/1.1/DTD/svg11.dtd"><!-- Generated by graphviz version 2.40.1 (20161225.0304)
 --><!-- Title: Taskflow Pages: 1 --><svg xmlns="http://www.w3.org/2000/svg" xmlns:xlink="http://www.w3.org/1999/xlink" width="2921pt" height="749pt" viewBox="0.00 0.00 2921.00 748.80">
<g id="graph0" class="graph" transform="scale(1 1) rotate(0) translate(4 744.8)">
<title>Taskflow</title>
<polygon fill="#ffffff" stroke="transparent" points="-4,4 -4,-744.8 2917,-744.8 2917,4 -4,4"/>
<g id="clust1" class="cluster">
<title>cluster_p0x16d08a328</title>
<polygon fill="none" stroke="#000000" points="8,-8 8,-732.8 2905,-732.8 2905,-8 8,-8"/>
<text text-anchor="middle" x="1456.5" y="-716.2" font-family="Times,serif" font-size="14.00" fill="#000000">Taskflow: p0x16d08a2c8</text>
</g>
<!-- p0x158008030 -->
<g id="node1" class="node">
<title>p0x158008030</title>
<ellipse fill="none" stroke="#000000" cx="517" cy="-34" rx="30.1958" ry="18"/>
<text text-anchor="middle" x="517" y="-29.8" font-family="Times,serif" font-size="14.00" fill="#000000">?xml</text>
</g>
<!-- p0x158008118 -->
<g id="node2" class="node">
<title>p0x158008118</title>
<ellipse fill="none" stroke="#000000" cx="995" cy="-682" rx="51.8134" ry="18"/>
<text text-anchor="middle" x="995" y="-677.8" font-family="Times,serif" font-size="14.00" fill="#000000">Pre|?xml|0</text>
</g>
<!-- p0x1580082e8 -->
<g id="node3" class="node">
<title>p0x1580082e8</title>
<ellipse fill="none" stroke="#000000" cx="995" cy="-610" rx="56.9712" ry="18"/>
<text text-anchor="middle" x="995" y="-605.8" font-family="Times,serif" font-size="14.00" fill="#000000">Pre|layout|1</text>
</g>
<!-- p0x158008118&#45;&gt;p0x1580082e8 -->
<g id="edge1" class="edge">
<title>p0x158008118-&gt;p0x1580082e8</title>
<path fill="none" stroke="#000000" d="M995,-663.8314C995,-656.131 995,-646.9743 995,-638.4166"/>
<polygon fill="#000000" stroke="#000000" points="998.5001,-638.4132 995,-628.4133 991.5001,-638.4133 998.5001,-638.4132"/>
</g>
<!-- p0x1580084b8 -->
<g id="node5" class="node">
<title>p0x1580084b8</title>
<ellipse fill="none" stroke="#000000" cx="442" cy="-538" rx="48.8631" ry="18"/>
<text text-anchor="middle" x="442" y="-533.8" font-family="Times,serif" font-size="14.00" fill="#000000">Pre|data|2</text>
</g>
<!-- p0x1580082e8&#45;&gt;p0x1580084b8 -->
<g id="edge3" class="edge">
<title>p0x1580082e8-&gt;p0x1580084b8</title>
<path fill="none" stroke="#000000" d="M942.4765,-603.1615C838.135,-589.5763 605.5778,-559.2977 498.2564,-545.3245"/>
<polygon fill="#000000" stroke="#000000" points="498.6382,-541.8448 488.2699,-544.0243 497.7343,-548.7862 498.6382,-541.8448"/>
</g>
<!-- p0x158008f98 -->
<g id="node6" class="node">
<title>p0x158008f98</title>
<ellipse fill="none" stroke="#000000" cx="1487" cy="-538" rx="230.014" ry="18"/>
<text text-anchor="middle" x="1487" y="-533.8" font-family="Times,serif" font-size="14.00" fill="#000000">Pre|androidx.constraintlayout.widget.ConstraintLayout|8</text>
</g>
<!-- p0x1580082e8&#45;&gt;p0x158008f98 -->
<g id="edge4" class="edge">
<title>p0x1580082e8-&gt;p0x158008f98</title>
<path fill="none" stroke="#000000" d="M1046.7227,-602.4308C1122.4116,-591.3544 1265.4678,-570.4193 1367.9857,-555.4167"/>
<polygon fill="#000000" stroke="#000000" points="1368.7005,-558.8495 1378.0883,-553.9383 1367.6868,-551.9233 1368.7005,-558.8495"/>
</g>
<!-- p0x158008200 -->
<g id="node4" class="node">
<title>p0x158008200</title>
<ellipse fill="none" stroke="#000000" cx="517" cy="-106" rx="55.8462" ry="18"/>
<text text-anchor="middle" x="517" y="-101.8" font-family="Times,serif" font-size="14.00" fill="#000000">Pst|layout|1</text>
</g>
<!-- p0x158008200&#45;&gt;p0x158008030 -->
<g id="edge2" class="edge">
<title>p0x158008200-&gt;p0x158008030</title>
<path fill="none" stroke="#000000" d="M517,-87.8314C517,-80.131 517,-70.9743 517,-62.4166"/>
<polygon fill="#000000" stroke="#000000" points="520.5001,-62.4132 517,-52.4133 513.5001,-62.4133 520.5001,-62.4132"/>
</g>
<!-- p0x158008688 -->
<g id="node8" class="node">
<title>p0x158008688</title>
<ellipse fill="none" stroke="#000000" cx="80" cy="-466" rx="63.8903" ry="18"/>
<text text-anchor="middle" x="80" y="-461.8" font-family="Times,serif" font-size="14.00" fill="#000000">Pre|variable|3</text>
</g>
<!-- p0x1580084b8&#45;&gt;p0x158008688 -->
<g id="edge6" class="edge">
<title>p0x1580084b8-&gt;p0x158008688</title>
<path fill="none" stroke="#000000" d="M397.6137,-530.5999C340.5704,-520.8917 238.5667,-502.8622 152,-484 147.0902,-482.9302 142.0053,-481.7686 136.9126,-480.568"/>
<polygon fill="#000000" stroke="#000000" points="137.6943,-477.1563 127.1535,-478.2249 136.0601,-483.9628 137.6943,-477.1563"/>
</g>
<!-- p0x158008858 -->
<g id="node9" class="node">
<title>p0x158008858</title>
<ellipse fill="none" stroke="#000000" cx="225" cy="-466" rx="63.8903" ry="18"/>
<text text-anchor="middle" x="225" y="-461.8" font-family="Times,serif" font-size="14.00" fill="#000000">Pre|variable|4</text>
</g>
<!-- p0x1580084b8&#45;&gt;p0x158008858 -->
<g id="edge7" class="edge">
<title>p0x1580084b8-&gt;p0x158008858</title>
<path fill="none" stroke="#000000" d="M405.6791,-525.9488C370.2338,-514.1882 315.9798,-496.1868 276.1709,-482.9784"/>
<polygon fill="#000000" stroke="#000000" points="277.2306,-479.6424 266.6371,-479.8151 275.0261,-486.2862 277.2306,-479.6424"/>
</g>
<!-- p0x158008a28 -->
<g id="node10" class="node">
<title>p0x158008a28</title>
<ellipse fill="none" stroke="#000000" cx="370" cy="-466" rx="63.8903" ry="18"/>
<text text-anchor="middle" x="370" y="-461.8" font-family="Times,serif" font-size="14.00" fill="#000000">Pre|variable|5</text>
</g>
<!-- p0x1580084b8&#45;&gt;p0x158008a28 -->
<g id="edge8" class="edge">
<title>p0x1580084b8-&gt;p0x158008a28</title>
<path fill="none" stroke="#000000" d="M424.937,-520.937C415.9235,-511.9235 404.6959,-500.6959 394.7443,-490.7443"/>
<polygon fill="#000000" stroke="#000000" points="396.9867,-488.0369 387.4407,-483.4407 392.0369,-492.9867 396.9867,-488.0369"/>
</g>
<!-- p0x158008bf8 -->
<g id="node11" class="node">
<title>p0x158008bf8</title>
<ellipse fill="none" stroke="#000000" cx="515" cy="-466" rx="63.8903" ry="18"/>
<text text-anchor="middle" x="515" y="-461.8" font-family="Times,serif" font-size="14.00" fill="#000000">Pre|variable|6</text>
</g>
<!-- p0x1580084b8&#45;&gt;p0x158008bf8 -->
<g id="edge9" class="edge">
<title>p0x1580084b8-&gt;p0x158008bf8</title>
<path fill="none" stroke="#000000" d="M459.3,-520.937C468.4387,-511.9235 479.8222,-500.6959 489.9121,-490.7443"/>
<polygon fill="#000000" stroke="#000000" points="492.6552,-492.9547 497.3171,-483.4407 487.7396,-487.9709 492.6552,-492.9547"/>
</g>
<!-- p0x158008dc8 -->
<g id="node12" class="node">
<title>p0x158008dc8</title>
<ellipse fill="none" stroke="#000000" cx="660" cy="-466" rx="63.8903" ry="18"/>
<text text-anchor="middle" x="660" y="-461.8" font-family="Times,serif" font-size="14.00" fill="#000000">Pre|variable|7</text>
</g>
<!-- p0x1580084b8&#45;&gt;p0x158008dc8 -->
<g id="edge10" class="edge">
<title>p0x1580084b8-&gt;p0x158008dc8</title>
<path fill="none" stroke="#000000" d="M478.4883,-525.9488C514.2089,-514.1512 568.9439,-496.0736 608.9701,-482.8539"/>
<polygon fill="#000000" stroke="#000000" points="610.1542,-486.1489 618.552,-479.6892 607.9588,-479.502 610.1542,-486.1489"/>
</g>
<!-- p0x158009168 -->
<g id="node19" class="node">
<title>p0x158009168</title>
<ellipse fill="none" stroke="#000000" cx="813" cy="-466" rx="71.4146" ry="18"/>
<text text-anchor="middle" x="813" y="-461.8" font-family="Times,serif" font-size="14.00" fill="#000000">Pre|TextView|9</text>
</g>
<!-- p0x158008f98&#45;&gt;p0x158009168 -->
<g id="edge22" class="edge">
<title>p0x158008f98-&gt;p0x158009168</title>
<path fill="none" stroke="#000000" d="M1305.5624,-526.8882C1188.7644,-518.3751 1033.9259,-504.5506 898,-484 890.8223,-482.9148 883.3394,-481.6015 875.9197,-480.1842"/>
<polygon fill="#000000" stroke="#000000" points="876.3646,-476.7045 865.8756,-478.1987 875.007,-483.5716 876.3646,-476.7045"/>
</g>
<!-- p0x158009338 -->
<g id="node20" class="node">
<title>p0x158009338</title>
<ellipse fill="none" stroke="#000000" cx="828" cy="-394" rx="76.071" ry="18"/>
<text text-anchor="middle" x="828" y="-389.8" font-family="Times,serif" font-size="14.00" fill="#000000">Pre|TextView|10</text>
</g>
<!-- p0x158008f98&#45;&gt;p0x158009338 -->
<g id="edge23" class="edge">
<title>p0x158008f98-&gt;p0x158009338</title>
<path fill="none" stroke="#000000" d="M1296.5628,-527.8602C1144.0819,-518.4279 950.4684,-502.9895 918,-484 901.1851,-474.1656 906.1677,-462.3551 893,-448 883.1216,-437.2308 871.0897,-426.6667 860.0757,-417.7785"/>
<polygon fill="#000000" stroke="#000000" points="861.9232,-414.778 851.9042,-411.3327 857.5879,-420.2739 861.9232,-414.778"/>
</g>
<!-- p0x158009508 -->
<g id="node21" class="node">
<title>p0x158009508</title>
<ellipse fill="none" stroke="#000000" cx="409" cy="-322" rx="76.071" ry="18"/>
<text text-anchor="middle" x="409" y="-317.8" font-family="Times,serif" font-size="14.00" fill="#000000">Pre|TextView|11</text>
</g>
<!-- p0x158008f98&#45;&gt;p0x158009508 -->
<g id="edge24" class="edge">
<title>p0x158008f98-&gt;p0x158009508</title>
<path fill="none" stroke="#000000" d="M1287.469,-528.9473C1143.73,-520.6228 970.5766,-506.1678 944,-484 905.6511,-452.0127 951.5626,-407.7294 913,-376 840.8342,-316.6218 586.4436,-353.7064 494,-340 487.3834,-339.019 480.5087,-337.8377 473.6638,-336.5551"/>
<polygon fill="#000000" stroke="#000000" points="474.1744,-333.0889 463.69,-334.6148 472.8376,-339.9601 474.1744,-333.0889"/>
</g>
<!-- p0x1580096d8 -->
<g id="node22" class="node">
<title>p0x1580096d8</title>
<ellipse fill="none" stroke="#000000" cx="1204" cy="-466" rx="251.3226" ry="18"/>
<text text-anchor="middle" x="1204" y="-461.8" font-family="Times,serif" font-size="14.00" fill="#000000">Pre|com.google.android.material.textfield.TextInputLayout|12</text>
</g>
<!-- p0x158008f98&#45;&gt;p0x1580096d8 -->
<g id="edge25" class="edge">
<title>p0x158008f98-&gt;p0x1580096d8</title>
<path fill="none" stroke="#000000" d="M1419.2144,-520.7542C1377.9508,-510.256 1325.0837,-496.8058 1282.0743,-485.8634"/>
<polygon fill="#000000" stroke="#000000" points="1282.7675,-482.4284 1272.2133,-483.3546 1281.0416,-489.2123 1282.7675,-482.4284"/>
</g>
<!-- p0x158009a78 -->
<g id="node23" class="node">
<title>p0x158009a78</title>
<ellipse fill="none" stroke="#000000" cx="1098" cy="-322" rx="63.9349" ry="18"/>
<text text-anchor="middle" x="1098" y="-317.8" font-family="Times,serif" font-size="14.00" fill="#000000">Pre|Button|14</text>
</g>
<!-- p0x158008f98&#45;&gt;p0x158009a78 -->
<g id="edge26" class="edge">
<title>p0x158008f98-&gt;p0x158009a78</title>
<path fill="none" stroke="#000000" d="M1487.4436,-519.8728C1487.9631,-481.8884 1486.8599,-395.816 1467,-376 1419.9374,-329.0414 1235.3754,-352.0856 1170,-340 1164.9043,-339.058 1159.6326,-337.9677 1154.366,-336.7989"/>
<polygon fill="#000000" stroke="#000000" points="1154.8229,-333.3124 1144.2919,-334.4731 1153.2482,-340.133 1154.8229,-333.3124"/>
</g>
<!-- p0x158009c48 -->
<g id="node24" class="node">
<title>p0x158009c48</title>
<ellipse fill="none" stroke="#000000" cx="1243" cy="-322" rx="63.9349" ry="18"/>
<text text-anchor="middle" x="1243" y="-317.8" font-family="Times,serif" font-size="14.00" fill="#000000">Pre|Button|15</text>
</g>
<!-- p0x158008f98&#45;&gt;p0x158009c48 -->
<g id="edge27" class="edge">
<title>p0x158008f98-&gt;p0x158009c48</title>
<path fill="none" stroke="#000000" d="M1489.1225,-519.8319C1493.1052,-482.177 1499.787,-397.3476 1482,-376 1433.3968,-317.6676 1388.9511,-357.2098 1315,-340 1310.3058,-338.9076 1305.4461,-337.7501 1300.5696,-336.5698"/>
<polygon fill="#000000" stroke="#000000" points="1301.129,-333.1036 1290.5839,-334.1289 1299.4668,-339.9034 1301.129,-333.1036"/>
</g>
<!-- p0x158009e18 -->
<g id="node25" class="node">
<title>p0x158009e18</title>
<ellipse fill="none" stroke="#000000" cx="1530" cy="-322" rx="205.6552" ry="18"/>
<text text-anchor="middle" x="1530" y="-317.8" font-family="Times,serif" font-size="14.00" fill="#000000">Pre|androidx.constraintlayout.widget.Guideline|16</text>
</g>
<!-- p0x158008f98&#45;&gt;p0x158009e18 -->
<g id="edge28" class="edge">
<title>p0x158008f98-&gt;p0x158009e18</title>
<path fill="none" stroke="#000000" d="M1492.5963,-519.6209C1495.6363,-509.2298 1499.312,-495.9615 1502,-484 1512.4575,-437.4642 1521.1934,-382.653 1525.9992,-350.1997"/>
<polygon fill="#000000" stroke="#000000" points="1529.493,-350.496 1527.4752,-340.0951 1522.5665,-349.4842 1529.493,-350.496"/>
</g>
<!-- p0x158009fe8 -->
<g id="node26" class="node">
<title>p0x158009fe8</title>
<ellipse fill="none" stroke="#000000" cx="1959" cy="-322" rx="205.6552" ry="18"/>
<text text-anchor="middle" x="1959" y="-317.8" font-family="Times,serif" font-size="14.00" fill="#000000">Pre|androidx.constraintlayout.widget.Guideline|17</text>
</g>
<!-- p0x158008f98&#45;&gt;p0x158009fe8 -->
<g id="edge29" class="edge">
<title>p0x158008f98-&gt;p0x158009fe8</title>
<path fill="none" stroke="#000000" d="M1526.0273,-520.14C1611.9756,-480.8078 1817.3824,-386.808 1911.0158,-343.9589"/>
<polygon fill="#000000" stroke="#000000" points="1912.6213,-347.0733 1920.258,-339.7294 1909.7084,-340.7081 1912.6213,-347.0733"/>
</g>
<!-- p0x15800a1b8 -->
<g id="node27" class="node">
<title>p0x15800a1b8</title>
<ellipse fill="none" stroke="#000000" cx="2388" cy="-322" rx="205.6552" ry="18"/>
<text text-anchor="middle" x="2388" y="-317.8" font-family="Times,serif" font-size="14.00" fill="#000000">Pre|androidx.constraintlayout.widget.Guideline|18</text>
</g>
<!-- p0x158008f98&#45;&gt;p0x15800a1b8 -->
<g id="edge30" class="edge">
<title>p0x158008f98-&gt;p0x15800a1b8</title>
<path fill="none" stroke="#000000" d="M1540.1115,-520.4C1663.6626,-479.497 1961.602,-381.1024 1984,-376 2065.3824,-357.4604 2157.5381,-344.5412 2233.2619,-335.9991"/>
<polygon fill="#000000" stroke="#000000" points="2233.8083,-339.46 2243.3596,-334.8749 2233.0337,-332.503 2233.8083,-339.46"/>
</g>
<!-- p0x15800a388 -->
<g id="node28" class="node">
<title>p0x15800a388</title>
<ellipse fill="none" stroke="#000000" cx="2199" cy="-394" rx="205.6552" ry="18"/>
<text text-anchor="middle" x="2199" y="-389.8" font-family="Times,serif" font-size="14.00" fill="#000000">Pre|androidx.constraintlayout.widget.Guideline|19</text>
</g>
<!-- p0x158008f98&#45;&gt;p0x15800a388 -->
<g id="edge31" class="edge">
<title>p0x158008f98-&gt;p0x15800a388</title>
<path fill="none" stroke="#000000" d="M1644.8194,-524.8894C1725.8746,-516.4321 1825.8662,-503.3236 1914,-484 1994.9712,-466.2468 2085.873,-435.6016 2142.7772,-415.0689"/>
<polygon fill="#000000" stroke="#000000" points="2144.0974,-418.3132 2152.3033,-411.6114 2141.7091,-411.7332 2144.0974,-418.3132"/>
</g>
<!-- p0x15800a558 -->
<g id="node29" class="node">
<title>p0x15800a558</title>
<ellipse fill="none" stroke="#000000" cx="2409" cy="-466" rx="205.6552" ry="18"/>
<text text-anchor="middle" x="2409" y="-461.8" font-family="Times,serif" font-size="14.00" fill="#000000">Pre|androidx.constraintlayout.widget.Guideline|20</text>
</g>
<!-- p0x158008f98&#45;&gt;p0x15800a558 -->
<g id="edge32" class="edge">
<title>p0x158008f98-&gt;p0x15800a558</title>
<path fill="none" stroke="#000000" d="M1649.9775,-525.2729C1817.5829,-512.1844 2077.1716,-491.9128 2245.1099,-478.7984"/>
<polygon fill="#000000" stroke="#000000" points="2245.5887,-482.2717 2255.2858,-478.0037 2245.0436,-475.293 2245.5887,-482.2717"/>
</g>
<!-- p0x1580083d0 -->
<g id="node7" class="node">
<title>p0x1580083d0</title>
<ellipse fill="none" stroke="#000000" cx="79" cy="-322" rx="47.7382" ry="18"/>
<text text-anchor="middle" x="79" y="-317.8" font-family="Times,serif" font-size="14.00" fill="#000000">Pst|data|2</text>
</g>
<!-- p0x1580083d0&#45;&gt;p0x158008200 -->
<g id="edge5" class="edge">
<title>p0x1580083d0-&gt;p0x158008200</title>
<path fill="none" stroke="#000000" d="M57.8193,-305.5654C36.2889,-286.8589 8.5337,-255.8155 27,-232 79.1683,-164.7199 333.2925,-127.0849 453.6068,-112.7768"/>
<polygon fill="#000000" stroke="#000000" points="454.2527,-116.2252 463.7774,-111.5851 453.438,-109.2727 454.2527,-116.2252"/>
</g>
<!-- p0x1580085a0 -->
<g id="node13" class="node">
<title>p0x1580085a0</title>
<ellipse fill="none" stroke="#000000" cx="79" cy="-394" rx="62.7655" ry="18"/>
<text text-anchor="middle" x="79" y="-389.8" font-family="Times,serif" font-size="14.00" fill="#000000">Pst|variable|3</text>
</g>
<!-- p0x158008688&#45;&gt;p0x1580085a0 -->
<g id="edge12" class="edge">
<title>p0x158008688-&gt;p0x1580085a0</title>
<path fill="none" stroke="#000000" d="M79.7477,-447.8314C79.6407,-440.131 79.5135,-430.9743 79.3947,-422.4166"/>
<polygon fill="#000000" stroke="#000000" points="82.8944,-422.3637 79.2557,-412.4133 75.8951,-422.4609 82.8944,-422.3637"/>
</g>
<!-- p0x158008770 -->
<g id="node14" class="node">
<title>p0x158008770</title>
<ellipse fill="none" stroke="#000000" cx="222" cy="-394" rx="62.7655" ry="18"/>
<text text-anchor="middle" x="222" y="-389.8" font-family="Times,serif" font-size="14.00" fill="#000000">Pst|variable|4</text>
</g>
<!-- p0x158008858&#45;&gt;p0x158008770 -->
<g id="edge14" class="edge">
<title>p0x158008858-&gt;p0x158008770</title>
<path fill="none" stroke="#000000" d="M224.243,-447.8314C223.9221,-440.131 223.5406,-430.9743 223.184,-422.4166"/>
<polygon fill="#000000" stroke="#000000" points="226.6806,-422.2589 222.7672,-412.4133 219.6867,-422.5503 226.6806,-422.2589"/>
</g>
<!-- p0x158008940 -->
<g id="node15" class="node">
<title>p0x158008940</title>
<ellipse fill="none" stroke="#000000" cx="365" cy="-394" rx="62.7655" ry="18"/>
<text text-anchor="middle" x="365" y="-389.8" font-family="Times,serif" font-size="14.00" fill="#000000">Pst|variable|5</text>
</g>
<!-- p0x158008a28&#45;&gt;p0x158008940 -->
<g id="edge16" class="edge">
<title>p0x158008a28-&gt;p0x158008940</title>
<path fill="none" stroke="#000000" d="M368.7383,-447.8314C368.2035,-440.131 367.5677,-430.9743 366.9734,-422.4166"/>
<polygon fill="#000000" stroke="#000000" points="370.4632,-422.1467 366.2787,-412.4133 363.48,-422.6317 370.4632,-422.1467"/>
</g>
<!-- p0x158008b10 -->
<g id="node16" class="node">
<title>p0x158008b10</title>
<ellipse fill="none" stroke="#000000" cx="508" cy="-394" rx="62.7655" ry="18"/>
<text text-anchor="middle" x="508" y="-389.8" font-family="Times,serif" font-size="14.00" fill="#000000">Pst|variable|6</text>
</g>
<!-- p0x158008bf8&#45;&gt;p0x158008b10 -->
<g id="edge18" class="edge">
<title>p0x158008bf8-&gt;p0x158008b10</title>
<path fill="none" stroke="#000000" d="M513.2336,-447.8314C512.485,-440.131 511.5947,-430.9743 510.7627,-422.4166"/>
<polygon fill="#000000" stroke="#000000" points="514.2415,-422.0276 509.7902,-412.4133 507.2744,-422.7051 514.2415,-422.0276"/>
</g>
<!-- p0x158008ce0 -->
<g id="node17" class="node">
<title>p0x158008ce0</title>
<ellipse fill="none" stroke="#000000" cx="651" cy="-394" rx="62.7655" ry="18"/>
<text text-anchor="middle" x="651" y="-389.8" font-family="Times,serif" font-size="14.00" fill="#000000">Pst|variable|7</text>
</g>
<!-- p0x158008dc8&#45;&gt;p0x158008ce0 -->
<g id="edge20" class="edge">
<title>p0x158008dc8-&gt;p0x158008ce0</title>
<path fill="none" stroke="#000000" d="M657.7289,-447.8314C656.7664,-440.131 655.6218,-430.9743 654.5521,-422.4166"/>
<polygon fill="#000000" stroke="#000000" points="658.0151,-421.9019 653.3017,-412.4133 651.0691,-422.7702 658.0151,-421.9019"/>
</g>
<!-- p0x1580085a0&#45;&gt;p0x1580083d0 -->
<g id="edge11" class="edge">
<title>p0x1580085a0-&gt;p0x1580083d0</title>
<path fill="none" stroke="#000000" d="M79,-375.8314C79,-368.131 79,-358.9743 79,-350.4166"/>
<polygon fill="#000000" stroke="#000000" points="82.5001,-350.4132 79,-340.4133 75.5001,-350.4133 82.5001,-350.4132"/>
</g>
<!-- p0x158008770&#45;&gt;p0x1580083d0 -->
<g id="edge13" class="edge">
<title>p0x158008770-&gt;p0x1580083d0</title>
<path fill="none" stroke="#000000" d="M190.618,-378.1993C168.9401,-367.2845 139.9877,-352.7071 117.0024,-341.1341"/>
<polygon fill="#000000" stroke="#000000" points="118.3821,-337.9102 107.8763,-336.5391 115.2341,-344.1624 118.3821,-337.9102"/>
</g>
<!-- p0x158008940&#45;&gt;p0x1580083d0 -->
<g id="edge15" class="edge">
<title>p0x158008940-&gt;p0x1580083d0</title>
<path fill="none" stroke="#000000" d="M318.0531,-381.9768C310.0341,-379.9578 301.7823,-377.9019 294,-376 226.1401,-359.4158 208.5658,-357.7443 141,-340 136.3012,-338.766 131.4162,-337.4339 126.5428,-336.0722"/>
<polygon fill="#000000" stroke="#000000" points="127.1946,-332.6191 116.619,-333.2577 125.2846,-339.3535 127.1946,-332.6191"/>
</g>
<!-- p0x158008b10&#45;&gt;p0x1580083d0 -->
<g id="edge17" class="edge">
<title>p0x158008b10-&gt;p0x1580083d0</title>
<path fill="none" stroke="#000000" d="M462.3577,-381.5189C453.9654,-379.4838 445.2501,-377.541 437,-376 306.7281,-351.667 270.8359,-366.5612 141,-340 135.9145,-338.9596 130.6398,-337.7066 125.411,-336.3518"/>
<polygon fill="#000000" stroke="#000000" points="126.0417,-332.8964 115.4737,-333.6505 124.2054,-339.6512 126.0417,-332.8964"/>
</g>
<!-- p0x158008ce0&#45;&gt;p0x1580083d0 -->
<g id="edge19" class="edge">
<title>p0x158008ce0-&gt;p0x1580083d0</title>
<path fill="none" stroke="#000000" d="M605.7865,-381.3425C597.2725,-379.3 588.4042,-377.3999 580,-376 386.8946,-343.8342 333.526,-375.4693 141,-340 135.6953,-339.0227 130.1939,-337.7767 124.7574,-336.3976"/>
<polygon fill="#000000" stroke="#000000" points="125.6638,-333.0171 115.098,-333.8008 123.8464,-339.7771 125.6638,-333.0171"/>
</g>
<!-- p0x158008eb0 -->
<g id="node18" class="node">
<title>p0x158008eb0</title>
<ellipse fill="none" stroke="#000000" cx="1034" cy="-178" rx="229.3894" ry="18"/>
<text text-anchor="middle" x="1034" y="-173.8" font-family="Times,serif" font-size="14.00" fill="#000000">Pst|androidx.constraintlayout.widget.ConstraintLayout|8</text>
</g>
<!-- p0x158008eb0&#45;&gt;p0x158008200 -->
<g id="edge21" class="edge">
<title>p0x158008eb0-&gt;p0x158008200</title>
<path fill="none" stroke="#000000" d="M921.181,-162.2883C815.829,-147.6164 662.5443,-126.2692 578.2482,-114.5297"/>
<polygon fill="#000000" stroke="#000000" points="578.7052,-111.0597 568.318,-113.1468 577.7396,-117.9928 578.7052,-111.0597"/>
</g>
<!-- p0x158009080 -->
<g id="node30" class="node">
<title>p0x158009080</title>
<ellipse fill="none" stroke="#000000" cx="106" cy="-250" rx="70.2898" ry="18"/>
<text text-anchor="middle" x="106" y="-245.8" font-family="Times,serif" font-size="14.00" fill="#000000">Pst|TextView|9</text>
</g>
<!-- p0x158009168&#45;&gt;p0x158009080 -->
<g id="edge34" class="edge">
<title>p0x158009168-&gt;p0x158009080</title>
<path fill="none" stroke="#000000" d="M786.2597,-449.2429C772.223,-439.5486 755.4118,-426.4283 743,-412 731.0636,-398.1243 738.473,-385.7775 723,-376 616.2698,-308.5562 262.7302,-407.4438 156,-340 156,-340 135.778,-303.6004 121.0546,-277.0983"/>
<polygon fill="#000000" stroke="#000000" points="124.0343,-275.2547 116.1182,-268.2128 117.9152,-278.6542 124.0343,-275.2547"/>
</g>
<!-- p0x158009250 -->
<g id="node31" class="node">
<title>p0x158009250</title>
<ellipse fill="none" stroke="#000000" cx="240" cy="-322" rx="74.9464" ry="18"/>
<text text-anchor="middle" x="240" y="-317.8" font-family="Times,serif" font-size="14.00" fill="#000000">Pst|TextView|10</text>
</g>
<!-- p0x158009338&#45;&gt;p0x158009250 -->
<g id="edge36" class="edge">
<title>p0x158009338-&gt;p0x158009250</title>
<path fill="none" stroke="#000000" d="M771.9939,-381.8026C760.7741,-379.6408 749.0417,-377.5793 738,-376 555.1664,-349.8492 506.6502,-367.4024 324,-340 317.4596,-339.0188 310.6646,-337.8374 303.8996,-336.5546"/>
<polygon fill="#000000" stroke="#000000" points="304.5302,-333.1117 294.0425,-334.6142 303.1782,-339.9799 304.5302,-333.1117"/>
</g>
<!-- p0x158009420 -->
<g id="node32" class="node">
<title>p0x158009420</title>
<ellipse fill="none" stroke="#000000" cx="289" cy="-250" rx="74.9464" ry="18"/>
<text text-anchor="middle" x="289" y="-245.8" font-family="Times,serif" font-size="14.00" fill="#000000">Pst|TextView|11</text>
</g>
<!-- p0x158009508&#45;&gt;p0x158009420 -->
<g id="edge38" class="edge">
<title>p0x158009508-&gt;p0x158009420</title>
<path fill="none" stroke="#000000" d="M380.8653,-305.1192C364.4657,-295.2794 343.5919,-282.7551 325.8874,-272.1324"/>
<polygon fill="#000000" stroke="#000000" points="327.3341,-268.9188 316.9584,-266.775 323.7326,-274.9213 327.3341,-268.9188"/>
</g>
<!-- p0x1580098a8 -->
<g id="node34" class="node">
<title>p0x1580098a8</title>
<ellipse fill="none" stroke="#000000" cx="1200" cy="-394" rx="257.6991" ry="18"/>
<text text-anchor="middle" x="1200" y="-389.8" font-family="Times,serif" font-size="14.00" fill="#000000">Pre|com.google.android.material.textfield.TextInputEditText|13</text>
</g>
<!-- p0x1580096d8&#45;&gt;p0x1580098a8 -->
<g id="edge40" class="edge">
<title>p0x1580096d8-&gt;p0x1580098a8</title>
<path fill="none" stroke="#000000" d="M1202.9906,-447.8314C1202.5628,-440.131 1202.0541,-430.9743 1201.5787,-422.4166"/>
<polygon fill="#000000" stroke="#000000" points="1205.0724,-422.2037 1201.023,-412.4133 1198.0831,-422.592 1205.0724,-422.2037"/>
</g>
<!-- p0x158009990 -->
<g id="node36" class="node">
<title>p0x158009990</title>
<ellipse fill="none" stroke="#000000" cx="963" cy="-250" rx="62.81" ry="18"/>
<text text-anchor="middle" x="963" y="-245.8" font-family="Times,serif" font-size="14.00" fill="#000000">Pst|Button|14</text>
</g>
<!-- p0x158009a78&#45;&gt;p0x158009990 -->
<g id="edge44" class="edge">
<title>p0x158009a78-&gt;p0x158009990</title>
<path fill="none" stroke="#000000" d="M1068.0391,-306.0209C1048.5512,-295.6273 1022.9422,-281.9692 1001.8895,-270.741"/>
<polygon fill="#000000" stroke="#000000" points="1003.3477,-267.5522 992.8771,-265.9345 1000.0536,-273.7286 1003.3477,-267.5522"/>
</g>
<!-- p0x158009b60 -->
<g id="node37" class="node">
<title>p0x158009b60</title>
<ellipse fill="none" stroke="#000000" cx="1106" cy="-250" rx="62.81" ry="18"/>
<text text-anchor="middle" x="1106" y="-245.8" font-family="Times,serif" font-size="14.00" fill="#000000">Pst|Button|15</text>
</g>
<!-- p0x158009c48&#45;&gt;p0x158009b60 -->
<g id="edge46" class="edge">
<title>p0x158009c48-&gt;p0x158009b60</title>
<path fill="none" stroke="#000000" d="M1212.5953,-306.0209C1192.7299,-295.5807 1166.597,-281.8466 1145.1785,-270.5901"/>
<polygon fill="#000000" stroke="#000000" points="1146.8,-267.4885 1136.3197,-265.9345 1143.5435,-273.6849 1146.8,-267.4885"/>
</g>
<!-- p0x158009d30 -->
<g id="node38" class="node">
<title>p0x158009d30</title>
<ellipse fill="none" stroke="#000000" cx="1391" cy="-250" rx="204.5307" ry="18"/>
<text text-anchor="middle" x="1391" y="-245.8" font-family="Times,serif" font-size="14.00" fill="#000000">Pst|androidx.constraintlayout.widget.Guideline|16</text>
</g>
<!-- p0x158009e18&#45;&gt;p0x158009d30 -->
<g id="edge48" class="edge">
<title>p0x158009e18-&gt;p0x158009d30</title>
<path fill="none" stroke="#000000" d="M1495.6404,-304.2022C1477.1793,-294.6396 1454.229,-282.7517 1434.5299,-272.5479"/>
<polygon fill="#000000" stroke="#000000" points="1435.9353,-269.3342 1425.446,-267.8425 1432.7157,-275.5499 1435.9353,-269.3342"/>
</g>
<!-- p0x158009f00 -->
<g id="node39" class="node">
<title>p0x158009f00</title>
<ellipse fill="none" stroke="#000000" cx="1818" cy="-250" rx="204.5307" ry="18"/>
<text text-anchor="middle" x="1818" y="-245.8" font-family="Times,serif" font-size="14.00" fill="#000000">Pst|androidx.constraintlayout.widget.Guideline|17</text>
</g>
<!-- p0x158009fe8&#45;&gt;p0x158009f00 -->
<g id="edge50" class="edge">
<title>p0x158009fe8-&gt;p0x158009f00</title>
<path fill="none" stroke="#000000" d="M1924.1461,-304.2022C1905.3345,-294.5964 1881.928,-282.6441 1861.8852,-272.4095"/>
<polygon fill="#000000" stroke="#000000" points="1863.4395,-269.2733 1852.9417,-267.8425 1860.256,-275.5075 1863.4395,-269.2733"/>
</g>
<!-- p0x15800a0d0 -->
<g id="node40" class="node">
<title>p0x15800a0d0</title>
<ellipse fill="none" stroke="#000000" cx="2245" cy="-250" rx="204.5307" ry="18"/>
<text text-anchor="middle" x="2245" y="-245.8" font-family="Times,serif" font-size="14.00" fill="#000000">Pst|androidx.constraintlayout.widget.Guideline|18</text>
</g>
<!-- p0x15800a1b8&#45;&gt;p0x15800a0d0 -->
<g id="edge52" class="edge">
<title>p0x15800a1b8-&gt;p0x15800a0d0</title>
<path fill="none" stroke="#000000" d="M2352.6517,-304.2022C2333.5733,-294.5964 2309.8348,-282.6441 2289.5077,-272.4095"/>
<polygon fill="#000000" stroke="#000000" points="2290.943,-269.2136 2280.4373,-267.8425 2287.795,-275.4658 2290.943,-269.2136"/>
</g>
<!-- p0x15800a2a0 -->
<g id="node41" class="node">
<title>p0x15800a2a0</title>
<ellipse fill="none" stroke="#000000" cx="2672" cy="-250" rx="204.5307" ry="18"/>
<text text-anchor="middle" x="2672" y="-245.8" font-family="Times,serif" font-size="14.00" fill="#000000">Pst|androidx.constraintlayout.widget.Guideline|19</text>
</g>
<!-- p0x15800a388&#45;&gt;p0x15800a2a0 -->
<g id="edge54" class="edge">
<title>p0x15800a388-&gt;p0x15800a2a0</title>
<path fill="none" stroke="#000000" d="M2337.892,-380.7029C2445.5043,-369.5227 2580.0542,-353.2844 2603,-340 2627.9715,-325.5428 2646.9652,-298.1426 2658.6415,-277.3567"/>
<polygon fill="#000000" stroke="#000000" points="2661.8352,-278.8074 2663.4865,-268.342 2655.6694,-275.4934 2661.8352,-278.8074"/>
</g>
<!-- p0x15800a470 -->
<g id="node42" class="node">
<title>p0x15800a470</title>
<ellipse fill="none" stroke="#000000" cx="2659" cy="-394" rx="204.5307" ry="18"/>
<text text-anchor="middle" x="2659" y="-389.8" font-family="Times,serif" font-size="14.00" fill="#000000">Pst|androidx.constraintlayout.widget.Guideline|20</text>
</g>
<!-- p0x15800a558&#45;&gt;p0x15800a470 -->
<g id="edge56" class="edge">
<title>p0x15800a558-&gt;p0x15800a470</title>
<path fill="none" stroke="#000000" d="M2468.8812,-448.7542C2505.0821,-438.3284 2551.3926,-424.9909 2589.2433,-414.0899"/>
<polygon fill="#000000" stroke="#000000" points="2590.5339,-417.3606 2599.1746,-411.2297 2588.5966,-410.634 2590.5339,-417.3606"/>
</g>
<!-- p0x158009080&#45;&gt;p0x158008eb0 -->
<g id="edge33" class="edge">
<title>p0x158009080-&gt;p0x158008eb0</title>
<path fill="none" stroke="#000000" d="M157.7667,-237.6595C168.3785,-235.4822 179.5107,-233.4514 190,-232 396.7715,-203.3897 634.1797,-189.9026 804.4271,-183.5651"/>
<polygon fill="#000000" stroke="#000000" points="804.6555,-187.0591 814.5205,-183.1948 804.3989,-180.0638 804.6555,-187.0591"/>
</g>
<!-- p0x158009250&#45;&gt;p0x158008eb0 -->
<g id="edge35" class="edge">
<title>p0x158009250-&gt;p0x158008eb0</title>
<path fill="none" stroke="#000000" d="M223.3094,-304.338C206.584,-284.5053 185.857,-252.4305 205,-232 225.5981,-210.0165 572.511,-193.7244 810.9692,-185.0601"/>
<polygon fill="#000000" stroke="#000000" points="811.309,-188.5502 821.1761,-184.6915 811.0563,-181.5548 811.309,-188.5502"/>
</g>
<!-- p0x158009420&#45;&gt;p0x158008eb0 -->
<g id="edge37" class="edge">
<title>p0x158009420-&gt;p0x158008eb0</title>
<path fill="none" stroke="#000000" d="M343.0362,-237.3437C352.9614,-235.3265 363.2617,-233.435 373,-232 524.5382,-209.6699 697.0822,-195.9654 827.8771,-187.9518"/>
<polygon fill="#000000" stroke="#000000" points="828.2437,-191.4361 838.0134,-187.3371 827.8198,-184.449 828.2437,-191.4361"/>
</g>
<!-- p0x1580095f0 -->
<g id="node33" class="node">
<title>p0x1580095f0</title>
<ellipse fill="none" stroke="#000000" cx="632" cy="-250" rx="250.198" ry="18"/>
<text text-anchor="middle" x="632" y="-245.8" font-family="Times,serif" font-size="14.00" fill="#000000">Pst|com.google.android.material.textfield.TextInputLayout|12</text>
</g>
<!-- p0x1580095f0&#45;&gt;p0x158008eb0 -->
<g id="edge39" class="edge">
<title>p0x1580095f0-&gt;p0x158008eb0</title>
<path fill="none" stroke="#000000" d="M725.4904,-233.2554C787.2553,-222.1931 868.2118,-207.6934 931.6963,-196.3231"/>
<polygon fill="#000000" stroke="#000000" points="932.5032,-199.7343 941.7295,-194.5261 931.269,-192.844 932.5032,-199.7343"/>
</g>
<!-- p0x1580097c0 -->
<g id="node35" class="node">
<title>p0x1580097c0</title>
<ellipse fill="none" stroke="#000000" cx="760" cy="-322" rx="256.5746" ry="18"/>
<text text-anchor="middle" x="760" y="-317.8" font-family="Times,serif" font-size="14.00" fill="#000000">Pst|com.google.android.material.textfield.TextInputEditText|13</text>
</g>
<!-- p0x1580098a8&#45;&gt;p0x1580097c0 -->
<g id="edge42" class="edge">
<title>p0x1580098a8-&gt;p0x1580097c0</title>
<path fill="none" stroke="#000000" d="M1098.779,-377.4366C1030.816,-366.3153 941.2542,-351.6598 871.2874,-340.2107"/>
<polygon fill="#000000" stroke="#000000" points="871.5455,-336.7064 861.1115,-338.5455 870.415,-343.6145 871.5455,-336.7064"/>
</g>
<!-- p0x1580097c0&#45;&gt;p0x1580095f0 -->
<g id="edge41" class="edge">
<title>p0x1580097c0-&gt;p0x1580095f0</title>
<path fill="none" stroke="#000000" d="M728.0304,-304.0171C711.3834,-294.6532 690.841,-283.098 673.0335,-273.0813"/>
<polygon fill="#000000" stroke="#000000" points="674.4374,-269.8553 664.0057,-268.0032 671.0055,-275.9564 674.4374,-269.8553"/>
</g>
<!-- p0x158009990&#45;&gt;p0x158008eb0 -->
<g id="edge43" class="edge">
<title>p0x158009990-&gt;p0x158008eb0</title>
<path fill="none" stroke="#000000" d="M980.1871,-232.5708C988.8864,-223.749 999.606,-212.8784 1009.1821,-203.1674"/>
<polygon fill="#000000" stroke="#000000" points="1011.7003,-205.5985 1016.2297,-196.0206 1006.7161,-200.6834 1011.7003,-205.5985"/>
</g>
<!-- p0x158009b60&#45;&gt;p0x158008eb0 -->
<g id="edge45" class="edge">
<title>p0x158009b60-&gt;p0x158008eb0</title>
<path fill="none" stroke="#000000" d="M1088.5708,-232.5708C1079.749,-223.749 1068.8784,-212.8784 1059.1674,-203.1674"/>
<polygon fill="#000000" stroke="#000000" points="1061.5666,-200.6168 1052.0206,-196.0206 1056.6168,-205.5666 1061.5666,-200.6168"/>
</g>
<!-- p0x158009d30&#45;&gt;p0x158008eb0 -->
<g id="edge47" class="edge">
<title>p0x158009d30-&gt;p0x158008eb0</title>
<path fill="none" stroke="#000000" d="M1309.097,-233.4817C1254.9161,-222.5545 1183.7437,-208.2004 1127.3665,-196.8302"/>
<polygon fill="#000000" stroke="#000000" points="1127.8731,-193.362 1117.3785,-194.8158 1126.4891,-200.2238 1127.8731,-193.362"/>
</g>
<!-- p0x158009f00&#45;&gt;p0x158008eb0 -->
<g id="edge49" class="edge">
<title>p0x158009f00-&gt;p0x158008eb0</title>
<path fill="none" stroke="#000000" d="M1676.4775,-237.003C1540.3688,-224.5033 1334.9362,-205.637 1193.1905,-192.6195"/>
<polygon fill="#000000" stroke="#000000" points="1193.3749,-189.1218 1183.0967,-191.6926 1192.7347,-196.0925 1193.3749,-189.1218"/>
</g>
<!-- p0x15800a0d0&#45;&gt;p0x158008eb0 -->
<g id="edge51" class="edge">
<title>p0x15800a0d0-&gt;p0x158008eb0</title>
<path fill="none" stroke="#000000" d="M2100.6799,-237.2096C2077.7146,-235.3457 2054.2133,-233.5392 2032,-232 1759.6344,-213.1273 1445.0665,-197.0547 1243.063,-187.4695"/>
<polygon fill="#000000" stroke="#000000" points="1243.0838,-183.9667 1232.9294,-186.9896 1242.7526,-190.9588 1243.0838,-183.9667"/>
</g>
<!-- p0x15800a2a0&#45;&gt;p0x158008eb0 -->
<g id="edge53" class="edge">
<title>p0x15800a2a0-&gt;p0x158008eb0</title>
<path fill="none" stroke="#000000" d="M2529.7088,-237.0533C2506.1049,-235.1705 2481.8733,-233.3991 2459,-232 2037.936,-206.2444 1546.0813,-190.8514 1264.2155,-183.4366"/>
<polygon fill="#000000" stroke="#000000" points="1263.9507,-179.9285 1253.8625,-183.1653 1263.7673,-186.9261 1263.9507,-179.9285"/>
</g>
<!-- p0x15800a470&#45;&gt;p0x158008eb0 -->
<g id="edge55" class="edge">
<title>p0x15800a470-&gt;p0x158008eb0</title>
<path fill="none" stroke="#000000" d="M2721.0401,-376.8417C2807.5315,-350.1199 2947.2253,-295.0365 2886,-232 2858.2557,-203.435 1764.7377,-186.7457 1271.2914,-180.6556"/>
<polygon fill="#000000" stroke="#000000" points="1271.2304,-177.1547 1261.1881,-180.5313 1271.1442,-184.1541 1271.2304,-177.1547"/>
</g>
</g>
</svg>